<svg width="32" height="32" viewBox="0 0 32 32" fill="none" xmlns="http://www.w3.org/2000/svg">
<path d="M31.524 6.58266C30.4107 7.076 29.2147 7.40933 27.9574 7.56C29.24 6.792 30.224 5.57333 30.688 4.12266C29.488 4.83466 28.1587 5.352 26.744 5.62933C25.6107 4.424 23.9974 3.66933 22.2107 3.66933C18.7814 3.66933 16 6.45066 16 9.88266C16 10.368 16.056 10.84 16.16 11.296C10.996 11.036 6.42136 8.56266 3.35736 4.80533C2.82403 5.72533 2.51736 6.792 2.51736 7.928C2.51736 10.0827 3.61469 11.9853 5.28003 13.0987C4.26136 13.0653 3.30403 12.7867 2.46669 12.3213V12.4013C2.46669 15.4107 4.60669 17.9213 7.44936 18.492C6.92669 18.6333 6.37869 18.708 5.81336 18.708C5.41336 18.708 5.02269 18.6707 4.64403 18.5987C5.43469 21.0653 7.72803 22.8627 10.4467 22.9107C8.32003 24.5773 5.64136 25.5707 2.73203 25.5707C2.23069 25.5707 1.73603 25.5413 1.24936 25.484C3.99869 27.248 7.26269 28.2747 10.7694 28.2747C22.196 28.2747 28.4427 18.8107 28.4427 10.6027C28.4427 10.336 28.436 10.0667 28.424 9.8C29.6374 8.92266 30.6907 7.83066 31.5214 6.58666L31.524 6.58266Z" fill="#1DA1F2"/>
</svg>
